<?xml version="1.0" encoding="UTF-8"?>
<svg version="1.1" xmlns="http://www.w3.org/2000/svg" width="100" height="100">
<path d="M0 0 C1.39456452 0.00667256 2.78911118 0.01863093 4.18359375 0.03515625 C5.2499707 0.04192383 5.2499707 0.04192383 6.33789062 0.04882812 C8.09899388 0.06064761 9.86005411 0.07858362 11.62109375 0.09765625 C11.62109375 0.75765625 11.62109375 1.41765625 11.62109375 2.09765625 C13.60109375 1.76765625 15.58109375 1.43765625 17.62109375 1.09765625 C18.11609375 2.08765625 18.11609375 2.08765625 18.62109375 3.09765625 C20.27109375 3.09765625 21.92109375 3.09765625 23.62109375 3.09765625 C24.11609375 4.08765625 24.11609375 4.08765625 24.62109375 5.09765625 C27.1484261 5.75320744 27.1484261 5.75320744 29.62109375 6.09765625 C29.62109375 7.08765625 29.62109375 8.07765625 29.62109375 9.09765625 C31.27109375 9.09765625 32.92109375 9.09765625 34.62109375 9.09765625 C35.11609375 10.58265625 35.11609375 10.58265625 35.62109375 12.09765625 C37.62125841 13.30647721 37.62125841 13.30647721 39.62109375 14.09765625 C39.62109375 14.75765625 39.62109375 15.41765625 39.62109375 16.09765625 C40.94109375 16.75765625 42.26109375 17.41765625 43.62109375 18.09765625 C43.62109375 19.08765625 43.62109375 20.07765625 43.62109375 21.09765625 C45.10609375 21.59265625 45.10609375 21.59265625 46.62109375 22.09765625 C46.74484375 22.90203125 46.86859375 23.70640625 46.99609375 24.53515625 C47.30546875 25.80359375 47.30546875 25.80359375 47.62109375 27.09765625 C48.28109375 27.42765625 48.94109375 27.75765625 49.62109375 28.09765625 C49.62109375 29.41765625 49.62109375 30.73765625 49.62109375 32.09765625 C50.11609375 32.59265625 50.61109375 33.08765625 51.12109375 33.59765625 C51.61609375 34.09265625 52.11109375 34.58765625 52.62109375 35.09765625 C52.62109375 36.41765625 52.62109375 37.73765625 52.62109375 39.09765625 C52.86666016 40.02384766 52.86666016 40.02384766 53.1171875 40.96875 C53.77296953 43.73930198 53.71530946 46.31631469 53.68359375 49.16015625 C53.67457031 50.20300781 53.66554688 51.24585938 53.65625 52.3203125 C53.64464844 53.23683594 53.63304688 54.15335938 53.62109375 55.09765625 C53.62109375 56.08765625 53.62109375 57.07765625 53.62109375 58.09765625 C53.62109375 59.08765625 53.62109375 60.07765625 53.62109375 61.09765625 C52.63109375 61.59265625 52.63109375 61.59265625 51.62109375 62.09765625 C51.62109375 63.74765625 51.62109375 65.39765625 51.62109375 67.09765625 C50.63109375 67.59265625 50.63109375 67.59265625 49.62109375 68.09765625 C49.27955438 69.76266068 48.94659877 71.42944302 48.62109375 73.09765625 C47.96109375 73.75765625 47.30109375 74.41765625 46.62109375 75.09765625 C46.62109375 76.08765625 46.62109375 77.07765625 46.62109375 78.09765625 C45.13609375 78.59265625 45.13609375 78.59265625 43.62109375 79.09765625 C43.45609375 79.75765625 43.29109375 80.41765625 43.12109375 81.09765625 C42.95609375 81.75765625 42.79109375 82.41765625 42.62109375 83.09765625 C41.13609375 83.59265625 41.13609375 83.59265625 39.62109375 84.09765625 C38.41227279 86.09782091 38.41227279 86.09782091 37.62109375 88.09765625 C36.63109375 88.09765625 35.64109375 88.09765625 34.62109375 88.09765625 C34.62109375 89.08765625 34.62109375 90.07765625 34.62109375 91.09765625 C33.83734375 91.20078125 33.05359375 91.30390625 32.24609375 91.41015625 C29.29064194 91.87360647 29.29064194 91.87360647 27.62109375 95.09765625 C26.63109375 95.09765625 25.64109375 95.09765625 24.62109375 95.09765625 C24.29109375 95.75765625 23.96109375 96.41765625 23.62109375 97.09765625 C21.97109375 97.09765625 20.32109375 97.09765625 18.62109375 97.09765625 C18.29109375 97.75765625 17.96109375 98.41765625 17.62109375 99.09765625 C14.65109375 98.60265625 14.65109375 98.60265625 11.62109375 98.09765625 C11.62109375 98.75765625 11.62109375 99.41765625 11.62109375 100.09765625 C6.34109375 100.09765625 1.06109375 100.09765625 -4.37890625 100.09765625 C-4.37890625 99.43765625 -4.37890625 98.77765625 -4.37890625 98.09765625 C-7.34890625 98.59265625 -7.34890625 98.59265625 -10.37890625 99.09765625 C-10.70890625 98.43765625 -11.03890625 97.77765625 -11.37890625 97.09765625 C-13.02890625 97.09765625 -14.67890625 97.09765625 -16.37890625 97.09765625 C-16.37890625 96.10765625 -16.37890625 95.11765625 -16.37890625 94.09765625 C-16.99765625 94.28328125 -17.61640625 94.46890625 -18.25390625 94.66015625 C-20.37890625 95.09765625 -20.37890625 95.09765625 -22.37890625 94.09765625 C-22.37890625 93.10765625 -22.37890625 92.11765625 -22.37890625 91.09765625 C-24.02890625 91.09765625 -25.67890625 91.09765625 -27.37890625 91.09765625 C-27.37890625 89.77765625 -27.37890625 88.45765625 -27.37890625 87.09765625 C-29.02890625 86.76765625 -30.67890625 86.43765625 -32.37890625 86.09765625 C-32.37890625 85.43765625 -32.37890625 84.77765625 -32.37890625 84.09765625 C-33.69890625 83.43765625 -35.01890625 82.77765625 -36.37890625 82.09765625 C-36.37890625 81.10765625 -36.37890625 80.11765625 -36.37890625 79.09765625 C-37.36890625 78.76765625 -38.35890625 78.43765625 -39.37890625 78.09765625 C-39.37890625 76.44765625 -39.37890625 74.79765625 -39.37890625 73.09765625 C-40.36890625 72.76765625 -41.35890625 72.43765625 -42.37890625 72.09765625 C-42.37890625 70.77765625 -42.37890625 69.45765625 -42.37890625 68.09765625 C-42.87390625 67.60265625 -43.36890625 67.10765625 -43.87890625 66.59765625 C-44.37390625 66.10265625 -44.86890625 65.60765625 -45.37890625 65.09765625 C-45.37890625 63.77765625 -45.37890625 62.45765625 -45.37890625 61.09765625 C-45.69369071 59.75982232 -46.02478281 58.42561916 -46.37890625 57.09765625 C-46.37890625 51.09765625 -46.37890625 45.09765625 -46.37890625 39.09765625 C-45.38890625 38.60265625 -45.38890625 38.60265625 -44.37890625 38.09765625 C-44.37890625 36.44765625 -44.37890625 34.79765625 -44.37890625 33.09765625 C-43.38890625 32.60265625 -43.38890625 32.60265625 -42.37890625 32.09765625 C-42.03736688 30.43265182 -41.70441127 28.76586948 -41.37890625 27.09765625 C-40.71890625 26.43765625 -40.05890625 25.77765625 -39.37890625 25.09765625 C-39.37890625 24.10765625 -39.37890625 23.11765625 -39.37890625 22.09765625 C-38.38890625 21.76765625 -37.39890625 21.43765625 -36.37890625 21.09765625 C-36.21390625 20.43765625 -36.04890625 19.77765625 -35.87890625 19.09765625 C-35.71390625 18.43765625 -35.54890625 17.77765625 -35.37890625 17.09765625 C-34.38890625 16.76765625 -33.39890625 16.43765625 -32.37890625 16.09765625 C-31.17008529 14.09749159 -31.17008529 14.09749159 -30.37890625 12.09765625 C-29.38890625 12.09765625 -28.39890625 12.09765625 -27.37890625 12.09765625 C-27.37890625 11.10765625 -27.37890625 10.11765625 -27.37890625 9.09765625 C-26.59515625 8.99453125 -25.81140625 8.89140625 -25.00390625 8.78515625 C-22.04845444 8.32170603 -22.04845444 8.32170603 -20.37890625 5.09765625 C-18.50390625 4.47265625 -18.50390625 4.47265625 -16.37890625 4.09765625 C-13.43032521 3.49059545 -12.57943219 3.29818219 -10.37890625 1.09765625 C-8.37932261 1.05684842 -6.37845371 1.05511269 -4.37890625 1.09765625 C-3.37890625 0.09765625 -3.37890625 0.09765625 0 0 Z " fill="#FF0101" transform="translate(46.37890625,-0.09765625)"/>
<path d="M0 0 C1.4540625 0.0309375 1.4540625 0.0309375 2.9375 0.0625 C3.87623691 2.08275905 4.81342803 4.1037364 5.75 6.125 C6.27207031 7.25035156 6.79414062 8.37570313 7.33203125 9.53515625 C8.92028417 13.02467544 10.4403644 16.53321638 11.9375 20.0625 C12.13907715 19.5277002 12.3406543 18.99290039 12.54833984 18.44189453 C13.46416383 16.02161529 14.38822122 13.60456236 15.3125 11.1875 C15.62960938 10.34574219 15.94671875 9.50398438 16.2734375 8.63671875 C16.5828125 7.83105469 16.8921875 7.02539062 17.2109375 6.1953125 C17.63511963 5.07987061 17.63511963 5.07987061 18.06787109 3.94189453 C18.9375 2.0625 18.9375 2.0625 20.9375 0.0625 C22.9175 0.0625 24.8975 0.0625 26.9375 0.0625 C26.9375 10.2925 26.9375 20.5225 26.9375 31.0625 C25.2875 31.0625 23.6375 31.0625 21.9375 31.0625 C21.4425 21.6575 21.4425 21.6575 20.9375 12.0625 C18.9575 17.0125 16.9775 21.9625 14.9375 27.0625 C12.9575 27.0625 10.9775 27.0625 8.9375 27.0625 C6.9575 22.7725 4.9775 18.4825 2.9375 14.0625 C2.6075 19.6725 2.2775 25.2825 1.9375 31.0625 C-0.0425 31.0625 -2.0225 31.0625 -4.0625 31.0625 C-4.08715622 26.80835377 -4.10533899 22.55424502 -4.11743164 18.30004883 C-4.12247101 16.85179927 -4.12930253 15.40355483 -4.13793945 13.95532227 C-4.15002247 11.87775412 -4.15573211 9.80025303 -4.16015625 7.72265625 C-4.16539307 6.47105713 -4.17062988 5.21945801 -4.17602539 3.92993164 C-4.01898034 -0.03672231 -3.99984495 0.08162949 0 0 Z " fill="#FFEFEF" transform="translate(54.0625,34.9375)"/>
<path d="M0 0 C1.98 0 3.96 0 6 0 C6.01458252 0.68102783 6.02916504 1.36205566 6.04418945 2.0637207 C6.11862696 5.14722215 6.21530083 8.22963567 6.3125 11.3125 C6.33505859 12.38435547 6.35761719 13.45621094 6.38085938 14.56054688 C6.41630859 15.58857422 6.45175781 16.61660156 6.48828125 17.67578125 C6.51446533 18.62364502 6.54064941 19.57150879 6.56762695 20.5480957 C6.82937966 23.40294438 6.82937966 23.40294438 10 26 C12.97 26.33 15.94 26.66 19 27 C19 18.09 19 9.18 19 0 C20.98 0 22.96 0 25 0 C25.04939115 4.09338652 25.08571501 8.18665798 25.10986328 12.28027344 C25.11992877 13.67320781 25.13358234 15.06612102 25.15087891 16.45898438 C25.1751022 18.4595436 25.18540814 20.46025615 25.1953125 22.4609375 C25.20578613 23.66540527 25.21625977 24.86987305 25.22705078 26.11083984 C25 29 25 29 23 31 C20.17947525 31.27998939 17.51052047 31.41627428 14.6875 31.4375 C13.92759766 31.47037109 13.16769531 31.50324219 12.38476562 31.53710938 C8.12484837 31.57782101 6.48572089 31.38131954 3.01953125 28.66015625 C0.16523909 24.90044066 -0.12299664 22.26239162 -0.09765625 17.67578125 C-0.09443359 16.64775391 -0.09121094 15.61972656 -0.08789062 14.56054688 C-0.07951172 13.48869141 -0.07113281 12.41683594 -0.0625 11.3125 C-0.05798828 10.22904297 -0.05347656 9.14558594 -0.04882812 8.02929688 C-0.03703743 5.35280915 -0.02058063 2.67643223 0 0 Z " fill="#FFE9E9" transform="translate(19,35)"/>
</svg>
