<svg width="24" height="24" viewBox="0 0 24 24" fill="none" xmlns="http://www.w3.org/2000/svg">
    <path d="M18.1475 17.7541H21C21.5523 17.7541 22 17.3064 22 16.7541V8.42627C22 7.87398 21.5523 7.42627 21 7.42627H3C2.44772 7.42627 2 7.87398 2 8.42627V16.7541C2 17.3064 2.44771 17.7541 3 17.7541H6.01639" stroke="#627080" stroke-width="1.5"/>
    <mask id="path-2-inside-1_1091_93" fill="white">
        <rect x="5.76953" y="13.4918" width="12.459" height="8.19672" rx="1"/>
    </mask>
    <rect x="5.76953" y="13.4918" width="12.459" height="8.19672" rx="1" stroke="#627080" stroke-width="3" mask="url(#path-2-inside-1_1091_93)"/>
    <path d="M18.2285 7.5082V4C18.2285 3.44772 17.7808 3 17.2285 3H6.76953C6.21725 3 5.76953 3.44772 5.76953 4V7.5082" stroke="#627080" stroke-width="1.5"/>
    <path d="M8.55664 16.4426H15.3599" stroke="#627080" stroke-width="1.5"/>
    <path d="M8.55664 18.7377H15.3599" stroke="#627080" stroke-width="1.5"/>
    <circle cx="18.6758" cy="11.3146" r="0.9375" fill="#627080"/>
</svg>
