<?xml version="1.0" standalone="no"?>
<!DOCTYPE svg PUBLIC "-//W3C//DTD SVG 20010904//EN"
 "http://www.w3.org/TR/2001/REC-SVG-20010904/DTD/svg10.dtd">
<svg version="1.0" xmlns="http://www.w3.org/2000/svg"
 width="512.000000pt" height="512.000000pt" viewBox="0 0 512.000000 512.000000"
 preserveAspectRatio="xMidYMid meet">

<g transform="translate(0.000000,512.000000) scale(0.100000,-0.100000)"
fill="#000000" stroke="none">
<path d="M415 4626 c-94 -41 -124 -169 -58 -247 45 -53 72 -59 283 -59 104 0
190 -1 190 -2 0 -2 96 -450 214 -996 l212 -992 -41 -24 c-64 -38 -150 -131
-189 -206 -151 -286 -29 -639 266 -768 l56 -25 -20 -46 c-27 -64 -48 -157 -48
-217 -1 -275 207 -517 479 -556 337 -49 641 215 641 557 0 45 -25 167 -45 218
-7 16 11 17 284 17 160 0 291 -2 291 -3 0 -2 -9 -30 -20 -63 -111 -321 109
-677 449 -726 337 -49 641 215 641 557 0 45 -25 167 -45 217 -6 15 7 17 129
20 117 3 138 6 162 24 53 39 69 71 69 134 0 63 -16 95 -69 134 -27 21 -33 21
-1409 26 -1326 5 -1384 6 -1420 24 -77 38 -137 133 -137 216 0 92 80 202 166
228 32 9 344 12 1313 12 1397 0 1315 -4 1363 61 14 19 172 366 353 773 302
681 327 742 322 782 -6 53 -47 111 -93 130 -28 12 -303 14 -1738 14 l-1704 0
-15 68 c-8 37 -41 193 -73 346 -60 289 -70 318 -127 360 -27 20 -42 21 -315
23 -223 2 -294 0 -317 -11z m3972 -1118 c-2 -7 -114 -259 -248 -560 l-243
-548 -1162 0 c-1099 0 -1163 1 -1168 18 -3 9 -55 251 -116 537 -61 286 -113
530 -117 543 l-5 22 1532 0 c1222 0 1531 -3 1527 -12z m-2473 -2240 c86 -26
166 -136 166 -228 0 -124 -116 -240 -240 -240 -92 0 -202 80 -228 166 -28 94
-8 169 63 239 70 71 145 90 239 63z m1600 0 c86 -26 166 -136 166 -228 0 -124
-116 -240 -240 -240 -124 0 -240 116 -240 240 0 63 23 114 75 165 70 71 145
90 239 63z"/>
</g>
</svg>
